<?xml version="1.0" standalone="no"?>
<!DOCTYPE svg PUBLIC "-//W3C//DTD SVG 1.1//EN" "http://www.w3.org/Graphics/SVG/1.1/DTD/svg11.dtd" >
<svg xmlns="http://www.w3.org/2000/svg" xmlns:xlink="http://www.w3.org/1999/xlink" version="1.1" viewBox="-10 0 620 1000">
  <g transform="matrix(1 0 0 -1 0 800)">
   <path fill="#f38ba8"
d="M0 360.5q0 61.5 24 116.5t64 95.5t95.5 64t116.5 23.5t116.5 -23.5t96 -64t64 -95.5t23.5 -116.5t-23.5 -117t-64 -95.5t-96 -64t-116.5 -24t-116.5 24t-95.5 64t-64 95.5t-24 117zM324 627q59 -39 97 -107.5t38 -159.5q0 -192 -127 -266q66 8 120 45t85 95.5t31 125.5
q0 69 -32.5 128.5t-88.5 96.5t-123 42z" />
  </g>

</svg>
