<?xml version="1.0" standalone="no"?>
<!DOCTYPE svg PUBLIC "-//W3C//DTD SVG 1.1//EN" "http://www.w3.org/Graphics/SVG/1.1/DTD/svg11.dtd" >
<svg xmlns="http://www.w3.org/2000/svg" xmlns:xlink="http://www.w3.org/1999/xlink" version="1.1" viewBox="-10 0 620 1000">
  <g transform="matrix(1 0 0 -1 0 800)">
   <path fill="#f38ba8"
d="M0 360q0 61 24 116.5t64 96t95.5 64t116.5 23.5t116.5 -23.5t96 -64t64 -96t23.5 -116.5t-23.5 -116.5t-64 -95.5t-96 -64t-116.5 -24t-116.5 24t-95.5 64t-64 95.5t-24 116.5zM32 359.5q0 -54.5 21 -104t57 -85.5t86 -57t104 -21t104 21t86 57t57 86t21 104
q0 72 -36 134t-98 98t-134 36q-55 0 -104.5 -21t-85.5 -57t-57 -86t-21 -104.5z" />
  </g>

</svg>
