<?xml version="1.0" standalone="no"?>
<!DOCTYPE svg PUBLIC "-//W3C//DTD SVG 1.1//EN" "http://www.w3.org/Graphics/SVG/1.1/DTD/svg11.dtd" >
<svg xmlns="http://www.w3.org/2000/svg" xmlns:xlink="http://www.w3.org/1999/xlink" version="1.1" viewBox="-10 0 620 1000">
  <g transform="matrix(1 0 0 -1 0 800)">
   <path fill="#f38ba8"
d="M0 360q0 82 40.5 151t109 109t150.5 40q61 0 116.5 -23.5t96 -64t64 -95.5t23.5 -116.5t-23.5 -117t-64 -95.5t-96 -64t-116.5 -24t-116.5 24t-95.5 64t-64 95.5t-24 116.5zM182 360q0 -178 92 -266q3 0 8.5 -0.5t9.5 -1t8 -0.5q54 0 104 21t86 57t57 86t21 104t-21 104
t-57 86t-86 57t-104 21q-14 0 -22 -1q-43 -49 -69.5 -117.5t-26.5 -149.5z" />
  </g>

</svg>
