<?xml version="1.0" standalone="no"?>
<!DOCTYPE svg PUBLIC "-//W3C//DTD SVG 1.1//EN" "http://www.w3.org/Graphics/SVG/1.1/DTD/svg11.dtd" >
<svg xmlns="http://www.w3.org/2000/svg" xmlns:xlink="http://www.w3.org/1999/xlink" version="1.1" viewBox="-10 0 620 1000">
  <g transform="matrix(1 0 0 -1 0 800)">
   <path fill="#cd241d"
d="M0 360q0 61 24 116.5t64 96t95.5 64t116.5 23.5t116.5 -23.5t96 -64t64 -96t23.5 -116.5t-23.5 -116.5t-64 -95.5t-96 -64t-116.5 -24t-116.5 24t-95.5 64t-64 95.5t-24 116.5zM105 360q0 -191 133 -261q30 -7 62 -7q54 0 104 21t86 57t57 86t21 104q0 72 -36 134t-98 98
t-134 36q-28 0 -49 -4q-66 -38 -106 -107t-40 -157z" />
  </g>

</svg>
