<?xml version="1.0" standalone="no"?>
<!DOCTYPE svg PUBLIC "-//W3C//DTD SVG 1.1//EN" "http://www.w3.org/Graphics/SVG/1.1/DTD/svg11.dtd" >
<svg xmlns="http://www.w3.org/2000/svg" xmlns:xlink="http://www.w3.org/1999/xlink" version="1.1" viewBox="-10 0 620 1000">
  <g transform="matrix(1 0 0 -1 0 800)">
   <path fill="#cd241d"
d="M314 590.5q20 -9.5 20 -30.5v-400q0 -22 -20 -31q-19 -8 -36 6l-141 125h-70q-28 0 -47.5 19.5t-19.5 47.5v66q0 28 19.5 47.5t47.5 19.5h70l141 125q16 15 36 5.5zM443 453l58 -57l57 57q7 7 17.5 7t17.5 -7t7 -18t-7 -18l-57 -57l57 -57q7 -8 7 -18t-7 -17.5
t-17.5 -7.5t-17.5 7l-57 58l-58 -58q-7 -7 -17.5 -7t-18 7.5t-7.5 17.5t8 18l57 57l-57 57q-8 7 -8 18t7.5 18t18 7t17.5 -7z" />
  </g>

</svg>
