<?xml version="1.0" standalone="no"?>
<!DOCTYPE svg PUBLIC "-//W3C//DTD SVG 1.1//EN" "http://www.w3.org/Graphics/SVG/1.1/DTD/svg11.dtd" >
<svg xmlns="http://www.w3.org/2000/svg" xmlns:xlink="http://www.w3.org/1999/xlink" version="1.1" viewBox="-10 0 620 1000">
  <g transform="matrix(1 0 0 -1 0 800)">
   <path fill="#f38ba8"
d="M500 570q47 -38 73.5 -93t26.5 -117.5t-26.5 -117t-73.5 -91.5q-7 -6 -16.5 -5t-15 8t-4.5 16.5t8 15.5q39 31 61 76.5t22 97.5t-22 97.5t-61 77.5q-7 5 -8 14.5t4.5 16.5t15 8t16.5 -4zM444 500q30 -26 48 -62.5t18 -77.5t-18 -77.5t-48 -62.5q-8 -6 -17 -5t-15 8.5
t-5 16.5t8 15q50 41 50 105q0 31 -13.5 58.5t-36.5 46.5q-7 6 -8 15t5 16.5t15 8.5t17 -5v0zM387 430q33 -27 33 -70t-33 -70q-7 -6 -16.5 -5t-15.5 8.5t-5 17t9 14.5q16 14 16 35t-16 35q-8 6 -9 15t5 16.5t15.5 8.5t16.5 -5zM282 567q18 -8 18 -27v-360q0 -19 -18 -28
q-17 -7 -32 6l-127 112h-63q-25 0 -42.5 17.5t-17.5 42.5v60q0 25 17.5 42.5t42.5 17.5h63l127 112q14 13 32 5z" />
  </g>

</svg>
